<svg viewBox="0 0 1000 92" fill="none" xmlns="http://www.w3.org/2000/svg" role="img">
<style>.mono{font-family:ui-monospace, 'SFMono-Regular', 'SF Mono', Menlo, 'Cascadia Code', Consolas, 'Liberation Mono', monospace}</style>
<g class="fade s0"><path d="M 49 28 L 40 28 L 40 37" stroke="#aaaaaa" stroke-width="1.3" fill="none"/><path d="M 115 28 L 124 28 L 124 37" stroke="#aaaaaa" stroke-width="1.3" fill="none"/><path d="M 49 76 L 40 76 L 40 67" stroke="#aaaaaa" stroke-width="1.3" fill="none"/><path d="M 115 76 L 124 76 L 124 67" stroke="#aaaaaa" stroke-width="1.3" fill="none"/></g>
<text x="48" y="68" font-size="52" fill="#242424" class="mono fade s0">03</text>
<rect class="fade s1" x="140" y="47" width="4" height="15" fill="#d6a54e"/>
<text x="154" y="58" font-size="14" fill="#aaaaaa" class="mono fade s1" letter-spacing="6">PROJECTS</text>
<text x="952" y="58" font-size="11" fill="#7a7a7a" class="mono fade s1" letter-spacing="2" text-anchor="end">CH.03 // projects</text>
<line x1="297.2" y1="53" x2="781.8" y2="53" stroke="#3a3a3a" stroke-width="1" class="s2"/>
<line x1="297" y1="53" x2="297" y2="57" stroke="#3a3a3a" stroke-width="1" opacity=".65"/>
<line x1="341" y1="53" x2="341" y2="57" stroke="#3a3a3a" stroke-width="1" opacity=".65"/>
<line x1="385" y1="53" x2="385" y2="57" stroke="#3a3a3a" stroke-width="1" opacity=".65"/>
<line x1="429" y1="53" x2="429" y2="57" stroke="#3a3a3a" stroke-width="1" opacity=".65"/>
<line x1="473" y1="53" x2="473" y2="57" stroke="#3a3a3a" stroke-width="1" opacity=".65"/>
<line x1="517" y1="53" x2="517" y2="57" stroke="#3a3a3a" stroke-width="1" opacity=".65"/>
<line x1="561" y1="53" x2="561" y2="57" stroke="#3a3a3a" stroke-width="1" opacity=".65"/>
<line x1="605" y1="53" x2="605" y2="57" stroke="#3a3a3a" stroke-width="1" opacity=".65"/>
<line x1="649" y1="53" x2="649" y2="57" stroke="#3a3a3a" stroke-width="1" opacity=".65"/>
<line x1="693" y1="53" x2="693" y2="57" stroke="#3a3a3a" stroke-width="1" opacity=".65"/>
<line x1="737" y1="53" x2="737" y2="57" stroke="#3a3a3a" stroke-width="1" opacity=".65"/>
<line x1="781" y1="53" x2="781" y2="57" stroke="#3a3a3a" stroke-width="1" opacity=".65"/>
</svg>
